<mxfile host="app.diagrams.net" modified="2024-06-01T10:03:15.256Z" agent="Mozilla/5.0 (Windows NT 10.0; Win64; x64) AppleWebKit/537.36 (KHTML, like Gecko) Chrome/120.0.0.0 Safari/537.36" etag="ANwYnIIWh-DNukk10-3N" version="24.3.1" type="github">
  <diagram id="C5RBs43oDa-KdzZeNtuy" name="Page-1">
    <mxGraphModel dx="1784" dy="1010" grid="1" gridSize="10" guides="1" tooltips="1" connect="1" arrows="1" fold="1" page="1" pageScale="1" pageWidth="1654" pageHeight="2336" math="0" shadow="0">
      <root>
        <mxCell id="WIyWlLk6GJQsqaUBKTNV-0" />
        <mxCell id="WIyWlLk6GJQsqaUBKTNV-1" parent="WIyWlLk6GJQsqaUBKTNV-0" />
        <mxCell id="FZUOU2JLS3xkKagUpbst-29" value="package" style="shape=folder;fontStyle=1;spacingTop=10;tabWidth=40;tabHeight=14;tabPosition=left;html=1;whiteSpace=wrap;" vertex="1" parent="WIyWlLk6GJQsqaUBKTNV-1">
          <mxGeometry x="65" y="710" width="1000" height="410" as="geometry" />
        </mxCell>
        <mxCell id="FZUOU2JLS3xkKagUpbst-28" value="package" style="shape=folder;fontStyle=1;spacingTop=10;tabWidth=40;tabHeight=14;tabPosition=left;html=1;whiteSpace=wrap;" vertex="1" parent="WIyWlLk6GJQsqaUBKTNV-1">
          <mxGeometry x="70" y="80" width="990" height="410" as="geometry" />
        </mxCell>
        <mxCell id="FZUOU2JLS3xkKagUpbst-57" style="edgeStyle=orthogonalEdgeStyle;rounded=0;orthogonalLoop=1;jettySize=auto;html=1;exitX=1;exitY=0.5;exitDx=0;exitDy=0;entryX=0;entryY=0.5;entryDx=0;entryDy=0;" edge="1" parent="WIyWlLk6GJQsqaUBKTNV-1" source="FZUOU2JLS3xkKagUpbst-6" target="FZUOU2JLS3xkKagUpbst-54">
          <mxGeometry relative="1" as="geometry" />
        </mxCell>
        <mxCell id="FZUOU2JLS3xkKagUpbst-6" value="&lt;p style=&quot;margin:0px;margin-top:6px;text-align:center;&quot;&gt;&lt;b&gt;InputBus&lt;/b&gt;&lt;/p&gt;&lt;hr size=&quot;1&quot; style=&quot;border-style:solid;&quot;&gt;&lt;p style=&quot;margin:0px;margin-left:8px;&quot;&gt;- device : Device&lt;br&gt;- filter :&amp;nbsp; Filter&lt;/p&gt;&lt;p style=&quot;margin:0px;margin-left:8px;&quot;&gt;- ACS : AutoCookingSystem&amp;nbsp;&lt;/p&gt;" style="align=left;overflow=fill;html=1;dropTarget=0;whiteSpace=wrap;fillColor=#fff2cc;strokeColor=#d6b656;" vertex="1" parent="WIyWlLk6GJQsqaUBKTNV-1">
          <mxGeometry x="110" y="120" width="180" height="90" as="geometry" />
        </mxCell>
        <mxCell id="FZUOU2JLS3xkKagUpbst-7" value="" style="shape=component;jettyWidth=8;jettyHeight=4;" vertex="1" parent="FZUOU2JLS3xkKagUpbst-6">
          <mxGeometry x="1" width="20" height="20" relative="1" as="geometry">
            <mxPoint x="-24" y="4" as="offset" />
          </mxGeometry>
        </mxCell>
        <mxCell id="FZUOU2JLS3xkKagUpbst-58" style="edgeStyle=orthogonalEdgeStyle;rounded=0;orthogonalLoop=1;jettySize=auto;html=1;exitX=1;exitY=0.5;exitDx=0;exitDy=0;entryX=0;entryY=0.5;entryDx=0;entryDy=0;" edge="1" parent="WIyWlLk6GJQsqaUBKTNV-1" source="FZUOU2JLS3xkKagUpbst-10" target="FZUOU2JLS3xkKagUpbst-54">
          <mxGeometry relative="1" as="geometry" />
        </mxCell>
        <mxCell id="FZUOU2JLS3xkKagUpbst-10" value="&lt;p style=&quot;margin:0px;margin-top:6px;text-align:center;&quot;&gt;&lt;b&gt;OutputBus&lt;/b&gt;&lt;/p&gt;&lt;hr size=&quot;1&quot; style=&quot;border-style:solid;&quot;&gt;&lt;p style=&quot;margin:0px;margin-left:8px;&quot;&gt;- device : Device&lt;br&gt;- filter :&amp;nbsp; Filter&lt;/p&gt;&lt;p style=&quot;margin:0px;margin-left:8px;&quot;&gt;- ACS : AutoCookingSystem&amp;nbsp;&lt;/p&gt;" style="align=left;overflow=fill;html=1;dropTarget=0;whiteSpace=wrap;fillColor=#fff2cc;strokeColor=#d6b656;" vertex="1" parent="WIyWlLk6GJQsqaUBKTNV-1">
          <mxGeometry x="110" y="250" width="180" height="90" as="geometry" />
        </mxCell>
        <mxCell id="FZUOU2JLS3xkKagUpbst-11" value="" style="shape=component;jettyWidth=8;jettyHeight=4;" vertex="1" parent="FZUOU2JLS3xkKagUpbst-10">
          <mxGeometry x="1" width="20" height="20" relative="1" as="geometry">
            <mxPoint x="-24" y="4" as="offset" />
          </mxGeometry>
        </mxCell>
        <mxCell id="FZUOU2JLS3xkKagUpbst-59" style="edgeStyle=orthogonalEdgeStyle;rounded=0;orthogonalLoop=1;jettySize=auto;html=1;exitX=1;exitY=0.5;exitDx=0;exitDy=0;entryX=0;entryY=0.5;entryDx=0;entryDy=0;" edge="1" parent="WIyWlLk6GJQsqaUBKTNV-1" source="FZUOU2JLS3xkKagUpbst-12" target="FZUOU2JLS3xkKagUpbst-54">
          <mxGeometry relative="1" as="geometry" />
        </mxCell>
        <mxCell id="FZUOU2JLS3xkKagUpbst-12" value="&lt;p style=&quot;margin:0px;margin-top:6px;text-align:center;&quot;&gt;&lt;b&gt;StorageBus&lt;/b&gt;&lt;/p&gt;&lt;hr size=&quot;1&quot; style=&quot;border-style:solid;&quot;&gt;&lt;p style=&quot;margin:0px;margin-left:8px;&quot;&gt;- device : Device&lt;br&gt;- filter :&amp;nbsp; Filter&lt;/p&gt;&lt;p style=&quot;margin:0px;margin-left:8px;&quot;&gt;- ACS : AutoCookingSystem&amp;nbsp;&lt;/p&gt;" style="align=left;overflow=fill;html=1;dropTarget=0;whiteSpace=wrap;fillColor=#fff2cc;strokeColor=#d6b656;" vertex="1" parent="WIyWlLk6GJQsqaUBKTNV-1">
          <mxGeometry x="110" y="380" width="180" height="90" as="geometry" />
        </mxCell>
        <mxCell id="FZUOU2JLS3xkKagUpbst-13" value="" style="shape=component;jettyWidth=8;jettyHeight=4;" vertex="1" parent="FZUOU2JLS3xkKagUpbst-12">
          <mxGeometry x="1" width="20" height="20" relative="1" as="geometry">
            <mxPoint x="-24" y="4" as="offset" />
          </mxGeometry>
        </mxCell>
        <mxCell id="FZUOU2JLS3xkKagUpbst-14" value="&lt;p style=&quot;margin:0px;margin-top:4px;text-align:center;&quot;&gt;&lt;i&gt;&amp;lt;&amp;lt;Interface&amp;gt;&amp;gt;&lt;/i&gt;&lt;br&gt;&lt;b&gt;InputInterface&lt;/b&gt;&lt;/p&gt;&lt;hr size=&quot;1&quot; style=&quot;border-style:solid;&quot;&gt;&lt;p style=&quot;margin:0px;margin-left:4px;&quot;&gt;+ inputItembyFilter() : Item&lt;br&gt;&lt;/p&gt;&lt;hr size=&quot;1&quot; style=&quot;border-style:solid;&quot;&gt;&lt;p style=&quot;margin:0px;margin-left:4px;&quot;&gt;+ setFilter(filter : Filter) : boolean&amp;nbsp;&lt;br&gt;&lt;br&gt;&lt;/p&gt;" style="verticalAlign=top;align=left;overflow=fill;html=1;whiteSpace=wrap;fillColor=#e1d5e7;strokeColor=#9673a6;" vertex="1" parent="WIyWlLk6GJQsqaUBKTNV-1">
          <mxGeometry x="430" y="130" width="190" height="90" as="geometry" />
        </mxCell>
        <mxCell id="FZUOU2JLS3xkKagUpbst-15" value="&lt;p style=&quot;margin:0px;margin-top:4px;text-align:center;&quot;&gt;&lt;i&gt;&amp;lt;&amp;lt;Interface&amp;gt;&amp;gt;&lt;/i&gt;&lt;br&gt;&lt;b&gt;OutputInterface&lt;/b&gt;&lt;/p&gt;&lt;hr size=&quot;1&quot; style=&quot;border-style:solid;&quot;&gt;&lt;p style=&quot;margin:0px;margin-left:4px;&quot;&gt;+ outputItembyFilter() : Item&lt;br&gt;&lt;/p&gt;&lt;hr size=&quot;1&quot; style=&quot;border-style:solid;&quot;&gt;&lt;p style=&quot;margin:0px;margin-left:4px;&quot;&gt;+ setFilter(filter : Filter) : boolean&amp;nbsp;&lt;br&gt;&lt;br&gt;&lt;/p&gt;" style="verticalAlign=top;align=left;overflow=fill;html=1;whiteSpace=wrap;fillColor=#e1d5e7;strokeColor=#9673a6;" vertex="1" parent="WIyWlLk6GJQsqaUBKTNV-1">
          <mxGeometry x="430" y="250" width="190" height="90" as="geometry" />
        </mxCell>
        <mxCell id="FZUOU2JLS3xkKagUpbst-16" value="&lt;p style=&quot;margin:0px;margin-top:4px;text-align:center;&quot;&gt;&lt;i&gt;&amp;lt;&amp;lt;Interface&amp;gt;&amp;gt;&lt;/i&gt;&lt;br&gt;&lt;b&gt;Interface&lt;/b&gt;&lt;/p&gt;&lt;hr size=&quot;1&quot; style=&quot;border-style:solid;&quot;&gt;&lt;p style=&quot;margin:0px;margin-left:4px;&quot;&gt;+ bind2Device (device : Device) : boolean&lt;/p&gt;+ activate () : String" style="verticalAlign=top;align=left;overflow=fill;html=1;whiteSpace=wrap;fillColor=#e1d5e7;strokeColor=#9673a6;" vertex="1" parent="WIyWlLk6GJQsqaUBKTNV-1">
          <mxGeometry x="730" y="130" width="230" height="90" as="geometry" />
        </mxCell>
        <mxCell id="FZUOU2JLS3xkKagUpbst-18" value="" style="endArrow=block;dashed=1;endFill=0;endSize=12;html=1;rounded=0;exitX=1;exitY=0.5;exitDx=0;exitDy=0;entryX=0;entryY=0.5;entryDx=0;entryDy=0;" edge="1" parent="WIyWlLk6GJQsqaUBKTNV-1" source="FZUOU2JLS3xkKagUpbst-12" target="FZUOU2JLS3xkKagUpbst-14">
          <mxGeometry width="160" relative="1" as="geometry">
            <mxPoint x="380" y="424.47" as="sourcePoint" />
            <mxPoint x="540" y="424.47" as="targetPoint" />
            <Array as="points">
              <mxPoint x="370" y="420" />
            </Array>
          </mxGeometry>
        </mxCell>
        <mxCell id="FZUOU2JLS3xkKagUpbst-21" value="" style="endArrow=block;dashed=1;endFill=0;endSize=12;html=1;rounded=0;exitX=1;exitY=0.5;exitDx=0;exitDy=0;" edge="1" parent="WIyWlLk6GJQsqaUBKTNV-1" source="FZUOU2JLS3xkKagUpbst-10" target="FZUOU2JLS3xkKagUpbst-15">
          <mxGeometry width="160" relative="1" as="geometry">
            <mxPoint x="510" y="440" as="sourcePoint" />
            <mxPoint x="670" y="440" as="targetPoint" />
          </mxGeometry>
        </mxCell>
        <mxCell id="FZUOU2JLS3xkKagUpbst-22" value="" style="endArrow=block;dashed=1;endFill=0;endSize=12;html=1;rounded=0;exitX=1;exitY=0.5;exitDx=0;exitDy=0;" edge="1" parent="WIyWlLk6GJQsqaUBKTNV-1" source="FZUOU2JLS3xkKagUpbst-6">
          <mxGeometry width="160" relative="1" as="geometry">
            <mxPoint x="510" y="440" as="sourcePoint" />
            <mxPoint x="430" y="175" as="targetPoint" />
          </mxGeometry>
        </mxCell>
        <mxCell id="FZUOU2JLS3xkKagUpbst-23" value="" style="endArrow=block;dashed=1;endFill=0;endSize=12;html=1;rounded=0;exitX=1;exitY=0.5;exitDx=0;exitDy=0;entryX=0;entryY=0.5;entryDx=0;entryDy=0;" edge="1" parent="WIyWlLk6GJQsqaUBKTNV-1" source="FZUOU2JLS3xkKagUpbst-12" target="FZUOU2JLS3xkKagUpbst-15">
          <mxGeometry width="160" relative="1" as="geometry">
            <mxPoint x="510" y="440" as="sourcePoint" />
            <mxPoint x="670" y="440" as="targetPoint" />
            <Array as="points">
              <mxPoint x="380" y="420" />
            </Array>
          </mxGeometry>
        </mxCell>
        <mxCell id="FZUOU2JLS3xkKagUpbst-24" value="" style="endArrow=block;dashed=1;endFill=0;endSize=12;html=1;rounded=0;exitX=1;exitY=0.5;exitDx=0;exitDy=0;entryX=0;entryY=0.5;entryDx=0;entryDy=0;" edge="1" parent="WIyWlLk6GJQsqaUBKTNV-1" source="FZUOU2JLS3xkKagUpbst-14" target="FZUOU2JLS3xkKagUpbst-16">
          <mxGeometry width="160" relative="1" as="geometry">
            <mxPoint x="650" y="280" as="sourcePoint" />
            <mxPoint x="810" y="280" as="targetPoint" />
          </mxGeometry>
        </mxCell>
        <mxCell id="FZUOU2JLS3xkKagUpbst-25" value="" style="endArrow=block;dashed=1;endFill=0;endSize=12;html=1;rounded=0;exitX=1;exitY=0.5;exitDx=0;exitDy=0;entryX=0;entryY=0.5;entryDx=0;entryDy=0;" edge="1" parent="WIyWlLk6GJQsqaUBKTNV-1" source="FZUOU2JLS3xkKagUpbst-15" target="FZUOU2JLS3xkKagUpbst-16">
          <mxGeometry width="160" relative="1" as="geometry">
            <mxPoint x="510" y="440" as="sourcePoint" />
            <mxPoint x="670" y="440" as="targetPoint" />
          </mxGeometry>
        </mxCell>
        <mxCell id="FZUOU2JLS3xkKagUpbst-26" value="&lt;p style=&quot;margin:0px;margin-top:6px;text-align:center;&quot;&gt;&lt;b&gt;Device&lt;/b&gt;&lt;/p&gt;&lt;hr size=&quot;1&quot; style=&quot;border-style:solid;&quot;&gt;&lt;p style=&quot;margin:0px;margin-left:8px;&quot;&gt;- ID : String&lt;br&gt;&lt;/p&gt;&lt;p style=&quot;margin:0px;margin-left:8px;&quot;&gt;-&amp;nbsp;&lt;span style=&quot;background-color: initial;&quot;&gt;storeFoodList :&amp;nbsp;&lt;/span&gt;&lt;span style=&quot;background-color: initial;&quot;&gt;ArrayList&amp;lt;Item&amp;gt;&amp;nbsp;&lt;/span&gt;&lt;/p&gt;&lt;p style=&quot;margin:0px;margin-left:8px;&quot;&gt;+ getID () : String&lt;span style=&quot;background-color: initial;&quot;&gt;&lt;br&gt;&lt;/span&gt;&lt;/p&gt;&lt;p style=&quot;margin:0px;margin-left:8px;&quot;&gt;- Capacity : int&lt;br&gt;&lt;/p&gt;&lt;p style=&quot;margin:0px;margin-left:8px;&quot;&gt;+ insertItem/removeItem(Item item):&lt;span style=&quot;background-color: initial;&quot;&gt;boolean&lt;/span&gt;&lt;span style=&quot;background-color: initial;&quot;&gt;&amp;nbsp;&lt;/span&gt;&lt;/p&gt;&lt;p style=&quot;margin:0px;margin-left:8px;&quot;&gt;&lt;span style=&quot;background-color: initial;&quot;&gt;+ add&amp;amp;get()&lt;/span&gt;&lt;/p&gt;&lt;p style=&quot;margin:0px;margin-left:8px;&quot;&gt;&lt;span style=&quot;background-color: initial;&quot;&gt;&lt;br&gt;&lt;/span&gt;&lt;/p&gt;&lt;p style=&quot;margin:0px;margin-left:8px;&quot;&gt;&lt;span style=&quot;background-color: initial;&quot;&gt;&lt;br&gt;&lt;/span&gt;&lt;/p&gt;&lt;p style=&quot;margin:0px;margin-left:8px;&quot;&gt;&lt;span style=&quot;background-color: initial;&quot;&gt;&lt;br&gt;&lt;/span&gt;&lt;/p&gt;" style="align=left;overflow=fill;html=1;dropTarget=0;whiteSpace=wrap;fillColor=#fff2cc;strokeColor=#d6b656;" vertex="1" parent="WIyWlLk6GJQsqaUBKTNV-1">
          <mxGeometry x="80" y="750" width="270" height="150" as="geometry" />
        </mxCell>
        <mxCell id="FZUOU2JLS3xkKagUpbst-27" value="" style="shape=component;jettyWidth=8;jettyHeight=4;" vertex="1" parent="FZUOU2JLS3xkKagUpbst-26">
          <mxGeometry x="1" width="20" height="20" relative="1" as="geometry">
            <mxPoint x="-24" y="4" as="offset" />
          </mxGeometry>
        </mxCell>
        <mxCell id="FZUOU2JLS3xkKagUpbst-30" value="&lt;p style=&quot;margin:0px;margin-top:6px;text-align:center;&quot;&gt;&lt;b&gt;CookingDevice&lt;/b&gt;&lt;/p&gt;&lt;hr size=&quot;1&quot; style=&quot;border-style:solid;&quot;&gt;&lt;p style=&quot;margin:0px;margin-left:8px;&quot;&gt;+ cook () : Item&lt;/p&gt;" style="align=left;overflow=fill;html=1;dropTarget=0;whiteSpace=wrap;fillColor=#fff2cc;strokeColor=#d6b656;" vertex="1" parent="WIyWlLk6GJQsqaUBKTNV-1">
          <mxGeometry x="120" y="995" width="180" height="70" as="geometry" />
        </mxCell>
        <mxCell id="FZUOU2JLS3xkKagUpbst-31" value="" style="shape=component;jettyWidth=8;jettyHeight=4;" vertex="1" parent="FZUOU2JLS3xkKagUpbst-30">
          <mxGeometry x="1" width="20" height="20" relative="1" as="geometry">
            <mxPoint x="-24" y="4" as="offset" />
          </mxGeometry>
        </mxCell>
        <mxCell id="FZUOU2JLS3xkKagUpbst-32" value="&lt;p style=&quot;margin:0px;margin-top:4px;text-align:center;&quot;&gt;&lt;i&gt;&amp;lt;&amp;lt;Interface&amp;gt;&amp;gt;&lt;/i&gt;&lt;br&gt;&lt;b&gt;Container&lt;/b&gt;&lt;/p&gt;&lt;hr size=&quot;1&quot; style=&quot;border-style:solid;&quot;&gt;&lt;p style=&quot;margin:0px;margin-left:4px;&quot;&gt;+ insertItem (Item) : boolean&amp;nbsp;&lt;br&gt;&lt;/p&gt;&lt;p style=&quot;margin:0px;margin-left:4px;&quot;&gt;+ removeItem (int) : Item&lt;/p&gt;&lt;hr size=&quot;1&quot; style=&quot;border-style:solid;&quot;&gt;&lt;p style=&quot;margin:0px;margin-left:4px;&quot;&gt;+ getMaxCapacity(): int&lt;br&gt;+ isFull(): boolean&lt;/p&gt;" style="verticalAlign=top;align=left;overflow=fill;html=1;whiteSpace=wrap;fillColor=#e1d5e7;strokeColor=#9673a6;" vertex="1" parent="WIyWlLk6GJQsqaUBKTNV-1">
          <mxGeometry x="460" y="800" width="190" height="130" as="geometry" />
        </mxCell>
        <mxCell id="FZUOU2JLS3xkKagUpbst-33" value="&lt;p style=&quot;margin:0px;margin-top:6px;text-align:center;&quot;&gt;&lt;b&gt;Recipe&lt;/b&gt;&lt;/p&gt;&lt;hr size=&quot;1&quot; style=&quot;border-style:solid;&quot;&gt;&lt;p style=&quot;margin:0px;margin-left:8px;&quot;&gt;-&amp;nbsp;&lt;span style=&quot;background-color: initial;&quot;&gt;formula:&amp;nbsp;&lt;/span&gt;&lt;span style=&quot;background-color: initial;&quot;&gt;ArrayList&amp;lt;Item&amp;gt;&amp;nbsp;&lt;/span&gt;&lt;/p&gt;&lt;p style=&quot;margin:0px;margin-left:8px;&quot;&gt;&lt;span style=&quot;background-color: initial;&quot;&gt;&lt;br&gt;&lt;/span&gt;&lt;/p&gt;" style="align=left;overflow=fill;html=1;dropTarget=0;whiteSpace=wrap;" vertex="1" parent="WIyWlLk6GJQsqaUBKTNV-1">
          <mxGeometry x="420" y="990" width="150" height="80" as="geometry" />
        </mxCell>
        <mxCell id="FZUOU2JLS3xkKagUpbst-34" value="" style="shape=component;jettyWidth=8;jettyHeight=4;" vertex="1" parent="FZUOU2JLS3xkKagUpbst-33">
          <mxGeometry x="1" width="20" height="20" relative="1" as="geometry">
            <mxPoint x="-24" y="4" as="offset" />
          </mxGeometry>
        </mxCell>
        <mxCell id="FZUOU2JLS3xkKagUpbst-36" value="&lt;p style=&quot;margin:0px;margin-top:6px;text-align:center;&quot;&gt;&lt;b&gt;Item&lt;/b&gt;&lt;/p&gt;&lt;hr size=&quot;1&quot; style=&quot;border-style:solid;&quot;&gt;&lt;p style=&quot;margin:0px;margin-left:8px;&quot;&gt;- ID : String&lt;/p&gt;&lt;p style=&quot;margin:0px;margin-left:8px;&quot;&gt;+ getID () : String&lt;/p&gt;" style="align=left;overflow=fill;html=1;dropTarget=0;whiteSpace=wrap;fillColor=#fff2cc;strokeColor=#d6b656;" vertex="1" parent="WIyWlLk6GJQsqaUBKTNV-1">
          <mxGeometry x="730" y="990" width="180" height="90" as="geometry" />
        </mxCell>
        <mxCell id="FZUOU2JLS3xkKagUpbst-37" value="" style="shape=component;jettyWidth=8;jettyHeight=4;" vertex="1" parent="FZUOU2JLS3xkKagUpbst-36">
          <mxGeometry x="1" width="20" height="20" relative="1" as="geometry">
            <mxPoint x="-24" y="4" as="offset" />
          </mxGeometry>
        </mxCell>
        <mxCell id="FZUOU2JLS3xkKagUpbst-38" value="Extends" style="endArrow=block;endSize=16;endFill=0;html=1;rounded=0;exitX=0.5;exitY=0;exitDx=0;exitDy=0;entryX=0.5;entryY=1;entryDx=0;entryDy=0;" edge="1" parent="WIyWlLk6GJQsqaUBKTNV-1" source="FZUOU2JLS3xkKagUpbst-30" target="FZUOU2JLS3xkKagUpbst-26">
          <mxGeometry width="160" relative="1" as="geometry">
            <mxPoint x="330" y="950" as="sourcePoint" />
            <mxPoint x="490" y="950" as="targetPoint" />
          </mxGeometry>
        </mxCell>
        <mxCell id="FZUOU2JLS3xkKagUpbst-39" value="" style="endArrow=block;dashed=1;endFill=0;endSize=12;html=1;rounded=0;exitX=1;exitY=0.5;exitDx=0;exitDy=0;entryX=0;entryY=0.5;entryDx=0;entryDy=0;" edge="1" parent="WIyWlLk6GJQsqaUBKTNV-1" source="FZUOU2JLS3xkKagUpbst-26" target="FZUOU2JLS3xkKagUpbst-32">
          <mxGeometry width="160" relative="1" as="geometry">
            <mxPoint x="475" y="974.58" as="sourcePoint" />
            <mxPoint x="635" y="974.58" as="targetPoint" />
          </mxGeometry>
        </mxCell>
        <mxCell id="FZUOU2JLS3xkKagUpbst-40" value="Extends" style="endArrow=block;endSize=16;endFill=0;html=1;rounded=0;" edge="1" parent="WIyWlLk6GJQsqaUBKTNV-1">
          <mxGeometry width="160" relative="1" as="geometry">
            <mxPoint x="570" y="1029.58" as="sourcePoint" />
            <mxPoint x="730" y="1029.58" as="targetPoint" />
          </mxGeometry>
        </mxCell>
        <mxCell id="FZUOU2JLS3xkKagUpbst-41" value="" style="endArrow=classic;html=1;rounded=0;exitX=1;exitY=0.5;exitDx=0;exitDy=0;entryX=0;entryY=0.5;entryDx=0;entryDy=0;" edge="1" parent="WIyWlLk6GJQsqaUBKTNV-1" source="FZUOU2JLS3xkKagUpbst-30" target="FZUOU2JLS3xkKagUpbst-33">
          <mxGeometry width="50" height="50" relative="1" as="geometry">
            <mxPoint x="560" y="1030" as="sourcePoint" />
            <mxPoint x="610" y="980" as="targetPoint" />
          </mxGeometry>
        </mxCell>
        <mxCell id="FZUOU2JLS3xkKagUpbst-173" style="edgeStyle=orthogonalEdgeStyle;rounded=0;orthogonalLoop=1;jettySize=auto;html=1;exitX=0;exitY=0.5;exitDx=0;exitDy=0;entryX=0;entryY=0.5;entryDx=0;entryDy=0;" edge="1" parent="WIyWlLk6GJQsqaUBKTNV-1" source="FZUOU2JLS3xkKagUpbst-44" target="FZUOU2JLS3xkKagUpbst-30">
          <mxGeometry relative="1" as="geometry">
            <Array as="points">
              <mxPoint x="30" y="605" />
              <mxPoint x="30" y="1030" />
            </Array>
          </mxGeometry>
        </mxCell>
        <mxCell id="FZUOU2JLS3xkKagUpbst-44" value="&lt;p style=&quot;margin:0px;margin-top:6px;text-align:center;&quot;&gt;&lt;b&gt;RecipeProvider&lt;/b&gt;&lt;/p&gt;&lt;hr size=&quot;1&quot; style=&quot;border-style:solid;&quot;&gt;&lt;p style=&quot;margin:0px;margin-left:8px;&quot;&gt;- device : Device&lt;br&gt;- ACS : AutoCookingSystem&lt;/p&gt;&lt;p style=&quot;margin:0px;margin-left:8px;&quot;&gt;- launchAutoCooking(CookingDevice CookDevice)&lt;/p&gt;" style="align=left;overflow=fill;html=1;dropTarget=0;whiteSpace=wrap;fillColor=#fff2cc;strokeColor=#d6b656;" vertex="1" parent="WIyWlLk6GJQsqaUBKTNV-1">
          <mxGeometry x="160" y="550" width="240" height="110" as="geometry" />
        </mxCell>
        <mxCell id="FZUOU2JLS3xkKagUpbst-45" value="" style="shape=component;jettyWidth=8;jettyHeight=4;" vertex="1" parent="FZUOU2JLS3xkKagUpbst-44">
          <mxGeometry x="1" width="20" height="20" relative="1" as="geometry">
            <mxPoint x="-24" y="4" as="offset" />
          </mxGeometry>
        </mxCell>
        <mxCell id="FZUOU2JLS3xkKagUpbst-46" value="&lt;p style=&quot;margin:0px;margin-top:6px;text-align:center;&quot;&gt;&lt;b&gt;Recipe&lt;/b&gt;&lt;/p&gt;&lt;hr size=&quot;1&quot; style=&quot;border-style:solid;&quot;&gt;&lt;p style=&quot;margin:0px;margin-left:8px;&quot;&gt;-&amp;nbsp;&lt;span style=&quot;background-color: initial;&quot;&gt;formula:&amp;nbsp;&lt;/span&gt;&lt;span style=&quot;background-color: initial;&quot;&gt;ArrayList&amp;lt;Item&amp;gt;&amp;nbsp;&lt;/span&gt;&lt;/p&gt;&lt;p style=&quot;margin:0px;margin-left:8px;&quot;&gt;&lt;span style=&quot;background-color: initial;&quot;&gt;&lt;br&gt;&lt;/span&gt;&lt;/p&gt;" style="align=left;overflow=fill;html=1;dropTarget=0;whiteSpace=wrap;" vertex="1" parent="WIyWlLk6GJQsqaUBKTNV-1">
          <mxGeometry x="460" y="565" width="150" height="80" as="geometry" />
        </mxCell>
        <mxCell id="FZUOU2JLS3xkKagUpbst-47" value="" style="shape=component;jettyWidth=8;jettyHeight=4;" vertex="1" parent="FZUOU2JLS3xkKagUpbst-46">
          <mxGeometry x="1" width="20" height="20" relative="1" as="geometry">
            <mxPoint x="-24" y="4" as="offset" />
          </mxGeometry>
        </mxCell>
        <mxCell id="FZUOU2JLS3xkKagUpbst-49" value="" style="endArrow=classic;html=1;rounded=0;exitX=1;exitY=0.5;exitDx=0;exitDy=0;entryX=0;entryY=0.5;entryDx=0;entryDy=0;" edge="1" parent="WIyWlLk6GJQsqaUBKTNV-1" source="FZUOU2JLS3xkKagUpbst-44" target="FZUOU2JLS3xkKagUpbst-46">
          <mxGeometry width="50" height="50" relative="1" as="geometry">
            <mxPoint x="140" y="800" as="sourcePoint" />
            <mxPoint x="190" y="750" as="targetPoint" />
          </mxGeometry>
        </mxCell>
        <mxCell id="FZUOU2JLS3xkKagUpbst-50" value="" style="endArrow=block;dashed=1;endFill=0;endSize=12;html=1;rounded=0;exitX=0.5;exitY=0;exitDx=0;exitDy=0;entryX=0.5;entryY=1;entryDx=0;entryDy=0;" edge="1" parent="WIyWlLk6GJQsqaUBKTNV-1" source="FZUOU2JLS3xkKagUpbst-44" target="FZUOU2JLS3xkKagUpbst-16">
          <mxGeometry width="160" relative="1" as="geometry">
            <mxPoint x="540" y="570" as="sourcePoint" />
            <mxPoint x="700" y="570" as="targetPoint" />
            <Array as="points">
              <mxPoint x="840" y="540" />
            </Array>
          </mxGeometry>
        </mxCell>
        <mxCell id="FZUOU2JLS3xkKagUpbst-51" value="" style="endArrow=block;dashed=1;endFill=0;endSize=12;html=1;rounded=0;exitX=0.5;exitY=1;exitDx=0;exitDy=0;entryX=0.5;entryY=0;entryDx=0;entryDy=0;" edge="1" parent="WIyWlLk6GJQsqaUBKTNV-1" source="FZUOU2JLS3xkKagUpbst-44" target="FZUOU2JLS3xkKagUpbst-32">
          <mxGeometry width="160" relative="1" as="geometry">
            <mxPoint x="540" y="670" as="sourcePoint" />
            <mxPoint x="700" y="670" as="targetPoint" />
          </mxGeometry>
        </mxCell>
        <mxCell id="FZUOU2JLS3xkKagUpbst-53" value="Filter" style="swimlane;fontStyle=1;align=center;verticalAlign=top;childLayout=stackLayout;horizontal=1;startSize=26;horizontalStack=0;resizeParent=1;resizeParentMax=0;resizeLast=0;collapsible=1;marginBottom=0;whiteSpace=wrap;html=1;fillColor=#fff2cc;strokeColor=#d6b656;" vertex="1" parent="WIyWlLk6GJQsqaUBKTNV-1">
          <mxGeometry x="530" y="370" width="180" height="110" as="geometry" />
        </mxCell>
        <mxCell id="FZUOU2JLS3xkKagUpbst-54" value="- ItemList: ArrayList&amp;lt;Item&amp;gt;" style="text;strokeColor=none;fillColor=none;align=left;verticalAlign=top;spacingLeft=4;spacingRight=4;overflow=hidden;rotatable=0;points=[[0,0.5],[1,0.5]];portConstraint=eastwest;whiteSpace=wrap;html=1;" vertex="1" parent="FZUOU2JLS3xkKagUpbst-53">
          <mxGeometry y="26" width="180" height="26" as="geometry" />
        </mxCell>
        <mxCell id="FZUOU2JLS3xkKagUpbst-55" value="" style="line;strokeWidth=1;fillColor=none;align=left;verticalAlign=middle;spacingTop=-1;spacingLeft=3;spacingRight=3;rotatable=0;labelPosition=right;points=[];portConstraint=eastwest;strokeColor=inherit;" vertex="1" parent="FZUOU2JLS3xkKagUpbst-53">
          <mxGeometry y="52" width="180" height="8" as="geometry" />
        </mxCell>
        <mxCell id="FZUOU2JLS3xkKagUpbst-56" value="+ addFilter(Item):&lt;div&gt;+ canTransport&lt;span style=&quot;background-color: initial;&quot;&gt;(Item): boolean&lt;/span&gt;&lt;/div&gt;" style="text;strokeColor=none;fillColor=none;align=left;verticalAlign=top;spacingLeft=4;spacingRight=4;overflow=hidden;rotatable=0;points=[[0,0.5],[1,0.5]];portConstraint=eastwest;whiteSpace=wrap;html=1;" vertex="1" parent="FZUOU2JLS3xkKagUpbst-53">
          <mxGeometry y="60" width="180" height="50" as="geometry" />
        </mxCell>
        <mxCell id="FZUOU2JLS3xkKagUpbst-63" style="edgeStyle=orthogonalEdgeStyle;rounded=0;orthogonalLoop=1;jettySize=auto;html=1;exitX=0.5;exitY=1;exitDx=0;exitDy=0;" edge="1" parent="WIyWlLk6GJQsqaUBKTNV-1" source="FZUOU2JLS3xkKagUpbst-61" target="FZUOU2JLS3xkKagUpbst-62">
          <mxGeometry relative="1" as="geometry" />
        </mxCell>
        <mxCell id="FZUOU2JLS3xkKagUpbst-61" value="getRequest" style="html=1;whiteSpace=wrap;" vertex="1" parent="WIyWlLk6GJQsqaUBKTNV-1">
          <mxGeometry x="1210" y="1420" width="110" height="50" as="geometry" />
        </mxCell>
        <mxCell id="FZUOU2JLS3xkKagUpbst-67" style="edgeStyle=orthogonalEdgeStyle;rounded=0;orthogonalLoop=1;jettySize=auto;html=1;exitX=0.5;exitY=1;exitDx=0;exitDy=0;entryX=0.5;entryY=0;entryDx=0;entryDy=0;" edge="1" parent="WIyWlLk6GJQsqaUBKTNV-1" source="FZUOU2JLS3xkKagUpbst-62" target="FZUOU2JLS3xkKagUpbst-66">
          <mxGeometry relative="1" as="geometry" />
        </mxCell>
        <mxCell id="FZUOU2JLS3xkKagUpbst-71" value="ProviderList中寻找食谱" style="edgeLabel;html=1;align=center;verticalAlign=middle;resizable=0;points=[];" vertex="1" connectable="0" parent="FZUOU2JLS3xkKagUpbst-67">
          <mxGeometry x="0.0133" y="-3" relative="1" as="geometry">
            <mxPoint as="offset" />
          </mxGeometry>
        </mxCell>
        <mxCell id="FZUOU2JLS3xkKagUpbst-62" value="ACS" style="html=1;whiteSpace=wrap;" vertex="1" parent="WIyWlLk6GJQsqaUBKTNV-1">
          <mxGeometry x="1210" y="1520" width="110" height="50" as="geometry" />
        </mxCell>
        <mxCell id="FZUOU2JLS3xkKagUpbst-72" value="Condition" style="rhombus;whiteSpace=wrap;html=1;fontColor=#000000;fillColor=#ffffc0;strokeColor=#ff0000;" vertex="1" parent="WIyWlLk6GJQsqaUBKTNV-1">
          <mxGeometry x="1230" y="1630" width="80" height="40" as="geometry" />
        </mxCell>
        <mxCell id="FZUOU2JLS3xkKagUpbst-66" value="遍历每个食谱供应器&lt;div&gt;找到能做出这个的食谱&lt;/div&gt;" style="html=1;whiteSpace=wrap;" vertex="1" parent="WIyWlLk6GJQsqaUBKTNV-1">
          <mxGeometry x="1210" y="1620" width="110" height="50" as="geometry" />
        </mxCell>
        <mxCell id="FZUOU2JLS3xkKagUpbst-73" value="no" style="edgeStyle=orthogonalEdgeStyle;html=1;align=left;verticalAlign=bottom;endArrow=open;endSize=8;strokeColor=#ff0000;rounded=0;" edge="1" source="FZUOU2JLS3xkKagUpbst-72" parent="WIyWlLk6GJQsqaUBKTNV-1">
          <mxGeometry x="-0.3361" y="10" relative="1" as="geometry">
            <mxPoint x="1400" y="1650" as="targetPoint" />
            <mxPoint as="offset" />
          </mxGeometry>
        </mxCell>
        <mxCell id="FZUOU2JLS3xkKagUpbst-74" value="yes" style="edgeStyle=orthogonalEdgeStyle;html=1;align=left;verticalAlign=top;endArrow=open;endSize=8;strokeColor=#ff0000;rounded=0;" edge="1" source="FZUOU2JLS3xkKagUpbst-72" parent="WIyWlLk6GJQsqaUBKTNV-1">
          <mxGeometry x="-1" relative="1" as="geometry">
            <mxPoint x="1270" y="1730" as="targetPoint" />
          </mxGeometry>
        </mxCell>
        <mxCell id="FZUOU2JLS3xkKagUpbst-75" value="结束" style="html=1;whiteSpace=wrap;" vertex="1" parent="WIyWlLk6GJQsqaUBKTNV-1">
          <mxGeometry x="1400" y="1630" width="80" height="40" as="geometry" />
        </mxCell>
        <mxCell id="FZUOU2JLS3xkKagUpbst-125" style="edgeStyle=orthogonalEdgeStyle;rounded=0;orthogonalLoop=1;jettySize=auto;html=1;exitX=0.5;exitY=1;exitDx=0;exitDy=0;entryX=0.5;entryY=0;entryDx=0;entryDy=0;" edge="1" parent="WIyWlLk6GJQsqaUBKTNV-1" source="FZUOU2JLS3xkKagUpbst-76" target="FZUOU2JLS3xkKagUpbst-107">
          <mxGeometry relative="1" as="geometry" />
        </mxCell>
        <mxCell id="FZUOU2JLS3xkKagUpbst-76" value="ACS的FoodList&lt;div&gt;中寻找所需食材&lt;/div&gt;" style="html=1;whiteSpace=wrap;" vertex="1" parent="WIyWlLk6GJQsqaUBKTNV-1">
          <mxGeometry x="660" y="1400" width="110" height="50" as="geometry" />
        </mxCell>
        <mxCell id="FZUOU2JLS3xkKagUpbst-140" style="edgeStyle=orthogonalEdgeStyle;rounded=0;orthogonalLoop=1;jettySize=auto;html=1;exitX=0;exitY=0.5;exitDx=0;exitDy=0;entryX=0.5;entryY=1;entryDx=0;entryDy=0;" edge="1" parent="WIyWlLk6GJQsqaUBKTNV-1" source="FZUOU2JLS3xkKagUpbst-82" target="FZUOU2JLS3xkKagUpbst-141">
          <mxGeometry relative="1" as="geometry">
            <mxPoint x="370" y="1753" as="targetPoint" />
          </mxGeometry>
        </mxCell>
        <mxCell id="FZUOU2JLS3xkKagUpbst-142" style="edgeStyle=orthogonalEdgeStyle;rounded=0;orthogonalLoop=1;jettySize=auto;html=1;exitX=1;exitY=0.5;exitDx=0;exitDy=0;" edge="1" parent="WIyWlLk6GJQsqaUBKTNV-1" source="FZUOU2JLS3xkKagUpbst-82">
          <mxGeometry relative="1" as="geometry">
            <mxPoint x="680" y="1745" as="targetPoint" />
          </mxGeometry>
        </mxCell>
        <mxCell id="FZUOU2JLS3xkKagUpbst-82" value="若有，检查是否能输入到ACS中，并传入相应Cooking Device中" style="html=1;whiteSpace=wrap;" vertex="1" parent="WIyWlLk6GJQsqaUBKTNV-1">
          <mxGeometry x="450" y="1710" width="115" height="70" as="geometry" />
        </mxCell>
        <mxCell id="FZUOU2JLS3xkKagUpbst-119" style="edgeStyle=orthogonalEdgeStyle;rounded=0;orthogonalLoop=1;jettySize=auto;html=1;exitX=0.5;exitY=1;exitDx=0;exitDy=0;entryX=0.5;entryY=0;entryDx=0;entryDy=0;" edge="1" parent="WIyWlLk6GJQsqaUBKTNV-1" source="FZUOU2JLS3xkKagUpbst-89" target="FZUOU2JLS3xkKagUpbst-90">
          <mxGeometry relative="1" as="geometry" />
        </mxCell>
        <mxCell id="FZUOU2JLS3xkKagUpbst-120" value="cook成功" style="edgeLabel;html=1;align=center;verticalAlign=middle;resizable=0;points=[];" vertex="1" connectable="0" parent="FZUOU2JLS3xkKagUpbst-119">
          <mxGeometry x="-0.0516" y="-2" relative="1" as="geometry">
            <mxPoint as="offset" />
          </mxGeometry>
        </mxCell>
        <mxCell id="FZUOU2JLS3xkKagUpbst-123" style="edgeStyle=orthogonalEdgeStyle;rounded=0;orthogonalLoop=1;jettySize=auto;html=1;exitX=0;exitY=0.5;exitDx=0;exitDy=0;entryX=1;entryY=0.5;entryDx=0;entryDy=0;" edge="1" parent="WIyWlLk6GJQsqaUBKTNV-1" source="FZUOU2JLS3xkKagUpbst-127" target="FZUOU2JLS3xkKagUpbst-76">
          <mxGeometry relative="1" as="geometry" />
        </mxCell>
        <mxCell id="FZUOU2JLS3xkKagUpbst-128" style="edgeStyle=orthogonalEdgeStyle;rounded=0;orthogonalLoop=1;jettySize=auto;html=1;exitX=1;exitY=0.5;exitDx=0;exitDy=0;entryX=1;entryY=1;entryDx=0;entryDy=0;" edge="1" parent="WIyWlLk6GJQsqaUBKTNV-1" source="FZUOU2JLS3xkKagUpbst-89" target="FZUOU2JLS3xkKagUpbst-66">
          <mxGeometry relative="1" as="geometry" />
        </mxCell>
        <mxCell id="FZUOU2JLS3xkKagUpbst-129" value="失败，继续遍历食谱供应器" style="edgeLabel;html=1;align=center;verticalAlign=middle;resizable=0;points=[];" vertex="1" connectable="0" parent="FZUOU2JLS3xkKagUpbst-128">
          <mxGeometry x="-0.3885" y="2" relative="1" as="geometry">
            <mxPoint x="57" as="offset" />
          </mxGeometry>
        </mxCell>
        <mxCell id="FZUOU2JLS3xkKagUpbst-89" value="相应CookingDevice开始执行cook" style="html=1;whiteSpace=wrap;" vertex="1" parent="WIyWlLk6GJQsqaUBKTNV-1">
          <mxGeometry x="1215" y="1728" width="110" height="60" as="geometry" />
        </mxCell>
        <mxCell id="FZUOU2JLS3xkKagUpbst-90" value="完成，准备开始下一次循环" style="html=1;whiteSpace=wrap;" vertex="1" parent="WIyWlLk6GJQsqaUBKTNV-1">
          <mxGeometry x="1215" y="1930" width="110" height="50" as="geometry" />
        </mxCell>
        <mxCell id="FZUOU2JLS3xkKagUpbst-98" style="edgeStyle=orthogonalEdgeStyle;rounded=0;orthogonalLoop=1;jettySize=auto;html=1;exitX=0.5;exitY=1;exitDx=0;exitDy=0;entryX=0.5;entryY=0;entryDx=0;entryDy=0;" edge="1" parent="WIyWlLk6GJQsqaUBKTNV-1" source="FZUOU2JLS3xkKagUpbst-97" target="FZUOU2JLS3xkKagUpbst-61">
          <mxGeometry relative="1" as="geometry" />
        </mxCell>
        <mxCell id="FZUOU2JLS3xkKagUpbst-97" value="&lt;p class=&quot;MsoNormal&quot;&gt;&lt;span style=&quot;mso-spacerun:&#39;yes&#39;;font-family:微软雅黑;color:rgb(51,51,51);&lt;br/&gt;font-size:10.0000pt;mso-font-kerning:1.0000pt;&quot;&gt;addRequest&lt;/span&gt;&lt;/p&gt;" style="html=1;whiteSpace=wrap;" vertex="1" parent="WIyWlLk6GJQsqaUBKTNV-1">
          <mxGeometry x="1210" y="1350" width="110" height="50" as="geometry" />
        </mxCell>
        <mxCell id="FZUOU2JLS3xkKagUpbst-151" style="edgeStyle=orthogonalEdgeStyle;rounded=0;orthogonalLoop=1;jettySize=auto;html=1;exitX=0.5;exitY=1;exitDx=0;exitDy=0;" edge="1" parent="WIyWlLk6GJQsqaUBKTNV-1" source="FZUOU2JLS3xkKagUpbst-101">
          <mxGeometry relative="1" as="geometry">
            <mxPoint x="775" y="1890" as="targetPoint" />
          </mxGeometry>
        </mxCell>
        <mxCell id="FZUOU2JLS3xkKagUpbst-101" value="&lt;p class=&quot;MsoNormal&quot;&gt;&lt;span style=&quot;mso-spacerun:&#39;yes&#39;;font-family:微软雅黑;color:rgb(51,51,51);&lt;br/&gt;font-size:10.0000pt;mso-font-kerning:1.0000pt;&quot;&gt;ACS sendLogisticsCommand&lt;/span&gt;&lt;/p&gt;&lt;p class=&quot;MsoNormal&quot;&gt;&lt;span style=&quot;mso-spacerun:&#39;yes&#39;;font-family:微软雅黑;color:rgb(51,51,51);&lt;br/&gt;font-size:10.0000pt;mso-font-kerning:1.0000pt;&quot;&gt;启动运输，总线的activate启动&lt;/span&gt;&lt;/p&gt;" style="html=1;whiteSpace=wrap;" vertex="1" parent="WIyWlLk6GJQsqaUBKTNV-1">
          <mxGeometry x="680" y="1710" width="190" height="70" as="geometry" />
        </mxCell>
        <mxCell id="FZUOU2JLS3xkKagUpbst-133" style="edgeStyle=orthogonalEdgeStyle;rounded=0;orthogonalLoop=1;jettySize=auto;html=1;exitX=0.5;exitY=1;exitDx=0;exitDy=0;" edge="1" parent="WIyWlLk6GJQsqaUBKTNV-1" source="FZUOU2JLS3xkKagUpbst-107">
          <mxGeometry relative="1" as="geometry">
            <mxPoint x="715" y="1710" as="targetPoint" />
          </mxGeometry>
        </mxCell>
        <mxCell id="FZUOU2JLS3xkKagUpbst-134" value="若有" style="edgeLabel;html=1;align=center;verticalAlign=middle;resizable=0;points=[];" vertex="1" connectable="0" parent="FZUOU2JLS3xkKagUpbst-133">
          <mxGeometry x="-0.0203" y="-1" relative="1" as="geometry">
            <mxPoint as="offset" />
          </mxGeometry>
        </mxCell>
        <mxCell id="FZUOU2JLS3xkKagUpbst-135" style="edgeStyle=orthogonalEdgeStyle;rounded=0;orthogonalLoop=1;jettySize=auto;html=1;exitX=0;exitY=0.5;exitDx=0;exitDy=0;" edge="1" parent="WIyWlLk6GJQsqaUBKTNV-1" source="FZUOU2JLS3xkKagUpbst-107">
          <mxGeometry relative="1" as="geometry">
            <mxPoint x="560" y="1595" as="targetPoint" />
          </mxGeometry>
        </mxCell>
        <mxCell id="FZUOU2JLS3xkKagUpbst-136" value="若无" style="edgeLabel;html=1;align=center;verticalAlign=middle;resizable=0;points=[];" vertex="1" connectable="0" parent="FZUOU2JLS3xkKagUpbst-135">
          <mxGeometry x="-0.1907" relative="1" as="geometry">
            <mxPoint x="1" as="offset" />
          </mxGeometry>
        </mxCell>
        <mxCell id="FZUOU2JLS3xkKagUpbst-107" value="由优先级高低来访问总线（排序），然后，先访问存储总线" style="html=1;whiteSpace=wrap;" vertex="1" parent="WIyWlLk6GJQsqaUBKTNV-1">
          <mxGeometry x="660" y="1570" width="110" height="50" as="geometry" />
        </mxCell>
        <mxCell id="FZUOU2JLS3xkKagUpbst-131" value="" style="edgeStyle=orthogonalEdgeStyle;rounded=0;orthogonalLoop=1;jettySize=auto;html=1;exitX=0;exitY=0.5;exitDx=0;exitDy=0;entryX=1;entryY=0.5;entryDx=0;entryDy=0;" edge="1" parent="WIyWlLk6GJQsqaUBKTNV-1" source="FZUOU2JLS3xkKagUpbst-89" target="FZUOU2JLS3xkKagUpbst-127">
          <mxGeometry relative="1" as="geometry">
            <mxPoint x="1215" y="1758" as="sourcePoint" />
            <mxPoint x="850" y="1425" as="targetPoint" />
          </mxGeometry>
        </mxCell>
        <mxCell id="FZUOU2JLS3xkKagUpbst-132" value="实现" style="edgeLabel;html=1;align=center;verticalAlign=middle;resizable=0;points=[];" vertex="1" connectable="0" parent="FZUOU2JLS3xkKagUpbst-131">
          <mxGeometry x="-0.6237" y="-1" relative="1" as="geometry">
            <mxPoint as="offset" />
          </mxGeometry>
        </mxCell>
        <mxCell id="FZUOU2JLS3xkKagUpbst-127" value="先遍历自身食材，没有的去网络中找" style="html=1;whiteSpace=wrap;" vertex="1" parent="WIyWlLk6GJQsqaUBKTNV-1">
          <mxGeometry x="900" y="1400" width="110" height="50" as="geometry" />
        </mxCell>
        <mxCell id="FZUOU2JLS3xkKagUpbst-138" style="edgeStyle=orthogonalEdgeStyle;rounded=0;orthogonalLoop=1;jettySize=auto;html=1;exitX=0.5;exitY=1;exitDx=0;exitDy=0;" edge="1" parent="WIyWlLk6GJQsqaUBKTNV-1" source="FZUOU2JLS3xkKagUpbst-137">
          <mxGeometry relative="1" as="geometry">
            <mxPoint x="505" y="1710" as="targetPoint" />
          </mxGeometry>
        </mxCell>
        <mxCell id="FZUOU2JLS3xkKagUpbst-139" style="edgeStyle=orthogonalEdgeStyle;rounded=0;orthogonalLoop=1;jettySize=auto;html=1;exitX=0;exitY=0.5;exitDx=0;exitDy=0;" edge="1" parent="WIyWlLk6GJQsqaUBKTNV-1" source="FZUOU2JLS3xkKagUpbst-137">
          <mxGeometry relative="1" as="geometry">
            <mxPoint x="380" y="1600" as="targetPoint" />
          </mxGeometry>
        </mxCell>
        <mxCell id="FZUOU2JLS3xkKagUpbst-137" value="寻找网络中的输入总线，遍历每条总线对应的设备是否有需要的物质" style="html=1;whiteSpace=wrap;" vertex="1" parent="WIyWlLk6GJQsqaUBKTNV-1">
          <mxGeometry x="450" y="1570" width="110" height="60" as="geometry" />
        </mxCell>
        <mxCell id="FZUOU2JLS3xkKagUpbst-141" value="若无，cook失败" style="html=1;whiteSpace=wrap;" vertex="1" parent="WIyWlLk6GJQsqaUBKTNV-1">
          <mxGeometry x="270" y="1570" width="110" height="50" as="geometry" />
        </mxCell>
        <mxCell id="FZUOU2JLS3xkKagUpbst-147" style="edgeStyle=orthogonalEdgeStyle;rounded=0;orthogonalLoop=1;jettySize=auto;html=1;exitX=1;exitY=0.5;exitDx=0;exitDy=0;" edge="1" parent="WIyWlLk6GJQsqaUBKTNV-1" source="FZUOU2JLS3xkKagUpbst-143" target="FZUOU2JLS3xkKagUpbst-146">
          <mxGeometry relative="1" as="geometry" />
        </mxCell>
        <mxCell id="FZUOU2JLS3xkKagUpbst-143" value="首先检查是否可以由这条总线运输" style="html=1;whiteSpace=wrap;" vertex="1" parent="WIyWlLk6GJQsqaUBKTNV-1">
          <mxGeometry x="270" y="1870" width="110" height="50" as="geometry" />
        </mxCell>
        <mxCell id="FZUOU2JLS3xkKagUpbst-145" style="edgeStyle=orthogonalEdgeStyle;rounded=0;orthogonalLoop=1;jettySize=auto;html=1;exitX=1;exitY=0.5;exitDx=0;exitDy=0;entryX=0;entryY=0.5;entryDx=0;entryDy=0;" edge="1" parent="WIyWlLk6GJQsqaUBKTNV-1" source="FZUOU2JLS3xkKagUpbst-144" target="FZUOU2JLS3xkKagUpbst-143">
          <mxGeometry relative="1" as="geometry" />
        </mxCell>
        <mxCell id="FZUOU2JLS3xkKagUpbst-144" value="总线绑定的过滤器是否会过滤掉这个物质" style="html=1;whiteSpace=wrap;" vertex="1" parent="WIyWlLk6GJQsqaUBKTNV-1">
          <mxGeometry x="100" y="1870" width="110" height="50" as="geometry" />
        </mxCell>
        <mxCell id="FZUOU2JLS3xkKagUpbst-146" value="然后检查是否有对应的存储总线或输入总线能把物质从现在的设备运输到存储设备（网络）中，在运输到这个cookingDevice中" style="html=1;whiteSpace=wrap;" vertex="1" parent="WIyWlLk6GJQsqaUBKTNV-1">
          <mxGeometry x="450" y="1845" width="130" height="100" as="geometry" />
        </mxCell>
        <mxCell id="FZUOU2JLS3xkKagUpbst-149" style="edgeStyle=orthogonalEdgeStyle;rounded=0;orthogonalLoop=1;jettySize=auto;html=1;exitX=0.5;exitY=0;exitDx=0;exitDy=0;entryX=0.571;entryY=1.029;entryDx=0;entryDy=0;entryPerimeter=0;" edge="1" parent="WIyWlLk6GJQsqaUBKTNV-1" source="FZUOU2JLS3xkKagUpbst-146" target="FZUOU2JLS3xkKagUpbst-82">
          <mxGeometry relative="1" as="geometry" />
        </mxCell>
        <mxCell id="FZUOU2JLS3xkKagUpbst-150" value="条件" style="edgeLabel;html=1;align=center;verticalAlign=middle;resizable=0;points=[];" vertex="1" connectable="0" parent="FZUOU2JLS3xkKagUpbst-149">
          <mxGeometry x="0.111" y="1" relative="1" as="geometry">
            <mxPoint as="offset" />
          </mxGeometry>
        </mxCell>
        <mxCell id="FZUOU2JLS3xkKagUpbst-153" style="edgeStyle=orthogonalEdgeStyle;rounded=0;orthogonalLoop=1;jettySize=auto;html=1;exitX=0.5;exitY=1;exitDx=0;exitDy=0;" edge="1" parent="WIyWlLk6GJQsqaUBKTNV-1" source="FZUOU2JLS3xkKagUpbst-152">
          <mxGeometry relative="1" as="geometry">
            <mxPoint x="775" y="2010" as="targetPoint" />
          </mxGeometry>
        </mxCell>
        <mxCell id="FZUOU2JLS3xkKagUpbst-152" value="对于总线控制的设备删除对应物质，控制权返回ACS" style="html=1;whiteSpace=wrap;" vertex="1" parent="WIyWlLk6GJQsqaUBKTNV-1">
          <mxGeometry x="720" y="1890" width="110" height="50" as="geometry" />
        </mxCell>
        <mxCell id="FZUOU2JLS3xkKagUpbst-154" value="运输完成，cookingDevice删除这些物质，增加做出来的食物，视情况进行运输" style="html=1;whiteSpace=wrap;" vertex="1" parent="WIyWlLk6GJQsqaUBKTNV-1">
          <mxGeometry x="720" y="2010" width="130" height="70" as="geometry" />
        </mxCell>
        <mxCell id="FZUOU2JLS3xkKagUpbst-171" style="edgeStyle=orthogonalEdgeStyle;rounded=0;orthogonalLoop=1;jettySize=auto;html=1;exitX=0.5;exitY=0;exitDx=0;exitDy=0;" edge="1" parent="WIyWlLk6GJQsqaUBKTNV-1" source="FZUOU2JLS3xkKagUpbst-156" target="FZUOU2JLS3xkKagUpbst-28">
          <mxGeometry relative="1" as="geometry" />
        </mxCell>
        <mxCell id="FZUOU2JLS3xkKagUpbst-156" value="ACS" style="swimlane;fontStyle=1;align=center;verticalAlign=top;childLayout=stackLayout;horizontal=1;startSize=26;horizontalStack=0;resizeParent=1;resizeParentMax=0;resizeLast=0;collapsible=1;marginBottom=0;whiteSpace=wrap;html=1;fillColor=#fff2cc;strokeColor=#d6b656;" vertex="1" parent="WIyWlLk6GJQsqaUBKTNV-1">
          <mxGeometry x="1100" y="480" width="460" height="268" as="geometry" />
        </mxCell>
        <mxCell id="FZUOU2JLS3xkKagUpbst-157" value="-&lt;span style=&quot;background-color: initial;&quot;&gt;&amp;nbsp; &amp;nbsp;BusList：&lt;/span&gt;ArrayList&amp;lt;aBus&amp;gt;&lt;div&gt;-&amp;nbsp; &amp;nbsp;ProvidersList ：&lt;span style=&quot;background-color: initial;&quot;&gt;ArrayList&amp;lt;RecipeProvider&amp;gt;&lt;/span&gt;&lt;span style=&quot;background-color: initial;&quot;&gt;&amp;nbsp;&lt;/span&gt;&lt;/div&gt;&lt;div&gt;-&amp;nbsp; &amp;nbsp;FoodList ：&amp;nbsp;&lt;span style=&quot;background-color: initial;&quot;&gt;ArrayList&amp;lt;Item&amp;gt;&lt;/span&gt;&lt;span style=&quot;background-color: initial;&quot;&gt;&amp;nbsp;&lt;/span&gt;&lt;/div&gt;&lt;div&gt;-&amp;nbsp; &amp;nbsp;requestList ：&lt;span style=&quot;background-color: initial;&quot;&gt;ArrayList&amp;lt;Item&amp;gt;&lt;/span&gt;&lt;/div&gt;&lt;div&gt;-&amp;nbsp; &amp;nbsp;deviceList：&lt;span style=&quot;background-color: initial;&quot;&gt;ArrayList&amp;lt;Device&amp;gt;&lt;/span&gt;&lt;span style=&quot;background-color: initial;&quot;&gt;&amp;nbsp;&lt;/span&gt;&lt;/div&gt;&lt;div&gt;-&amp;nbsp; &amp;nbsp;ILS ils;&lt;/div&gt;" style="text;strokeColor=none;fillColor=none;align=left;verticalAlign=top;spacingLeft=4;spacingRight=4;overflow=hidden;rotatable=0;points=[[0,0.5],[1,0.5]];portConstraint=eastwest;whiteSpace=wrap;html=1;" vertex="1" parent="FZUOU2JLS3xkKagUpbst-156">
          <mxGeometry y="26" width="460" height="94" as="geometry" />
        </mxCell>
        <mxCell id="FZUOU2JLS3xkKagUpbst-158" value="" style="line;strokeWidth=1;fillColor=none;align=left;verticalAlign=middle;spacingTop=-1;spacingLeft=3;spacingRight=3;rotatable=0;labelPosition=right;points=[];portConstraint=eastwest;strokeColor=inherit;" vertex="1" parent="FZUOU2JLS3xkKagUpbst-156">
          <mxGeometry y="120" width="460" height="28" as="geometry" />
        </mxCell>
        <mxCell id="FZUOU2JLS3xkKagUpbst-159" value="+ set&amp;amp;get&lt;div&gt;+ foundFoodinNetWork（Item）：Item&lt;/div&gt;&lt;div&gt;+ foundFoodinInput（Item）: Item&lt;/div&gt;&lt;div&gt;+ getRequest(Item): Item&lt;/div&gt;&lt;div&gt;+ visitNetFood():&lt;/div&gt;&lt;div&gt;+ add&amp;amp;removeFood(Item)&lt;/div&gt;&lt;div&gt;+ sendLogisticsCommand(String Source_ID,String Target_ID,Item item):boolean&lt;/div&gt;" style="text;strokeColor=none;fillColor=none;align=left;verticalAlign=top;spacingLeft=4;spacingRight=4;overflow=hidden;rotatable=0;points=[[0,0.5],[1,0.5]];portConstraint=eastwest;whiteSpace=wrap;html=1;" vertex="1" parent="FZUOU2JLS3xkKagUpbst-156">
          <mxGeometry y="148" width="460" height="120" as="geometry" />
        </mxCell>
        <mxCell id="FZUOU2JLS3xkKagUpbst-163" value="ILS" style="swimlane;fontStyle=1;align=center;verticalAlign=top;childLayout=stackLayout;horizontal=1;startSize=26;horizontalStack=0;resizeParent=1;resizeParentMax=0;resizeLast=0;collapsible=1;marginBottom=0;whiteSpace=wrap;html=1;fillColor=#fff2cc;strokeColor=#d6b656;" vertex="1" parent="WIyWlLk6GJQsqaUBKTNV-1">
          <mxGeometry x="1220" y="840" width="210" height="60" as="geometry" />
        </mxCell>
        <mxCell id="FZUOU2JLS3xkKagUpbst-165" value="" style="line;strokeWidth=1;fillColor=none;align=left;verticalAlign=middle;spacingTop=-1;spacingLeft=3;spacingRight=3;rotatable=0;labelPosition=right;points=[];portConstraint=eastwest;strokeColor=inherit;" vertex="1" parent="FZUOU2JLS3xkKagUpbst-163">
          <mxGeometry y="26" width="210" height="8" as="geometry" />
        </mxCell>
        <mxCell id="FZUOU2JLS3xkKagUpbst-166" value="+&amp;nbsp;itemTransport (String command):" style="text;strokeColor=none;fillColor=none;align=left;verticalAlign=top;spacingLeft=4;spacingRight=4;overflow=hidden;rotatable=0;points=[[0,0.5],[1,0.5]];portConstraint=eastwest;whiteSpace=wrap;html=1;" vertex="1" parent="FZUOU2JLS3xkKagUpbst-163">
          <mxGeometry y="34" width="210" height="26" as="geometry" />
        </mxCell>
        <mxCell id="FZUOU2JLS3xkKagUpbst-167" value="" style="endArrow=open;startArrow=circlePlus;endFill=0;startFill=0;endSize=8;html=1;rounded=0;exitX=0.5;exitY=0;exitDx=0;exitDy=0;entryX=0.486;entryY=1.005;entryDx=0;entryDy=0;entryPerimeter=0;" edge="1" parent="WIyWlLk6GJQsqaUBKTNV-1" source="FZUOU2JLS3xkKagUpbst-163" target="FZUOU2JLS3xkKagUpbst-159">
          <mxGeometry width="160" relative="1" as="geometry">
            <mxPoint x="1350" y="1000" as="sourcePoint" />
            <mxPoint x="1510" y="1000" as="targetPoint" />
          </mxGeometry>
        </mxCell>
        <mxCell id="FZUOU2JLS3xkKagUpbst-172" style="edgeStyle=orthogonalEdgeStyle;rounded=0;orthogonalLoop=1;jettySize=auto;html=1;exitX=0;exitY=0.5;exitDx=0;exitDy=0;entryX=1;entryY=0.724;entryDx=0;entryDy=0;entryPerimeter=0;" edge="1" parent="WIyWlLk6GJQsqaUBKTNV-1" source="FZUOU2JLS3xkKagUpbst-159" target="FZUOU2JLS3xkKagUpbst-29">
          <mxGeometry relative="1" as="geometry" />
        </mxCell>
      </root>
    </mxGraphModel>
  </diagram>
</mxfile>
